<svg width="5" height="8" viewBox="0 0 5 8" fill="none" xmlns="http://www.w3.org/2000/svg">
<path d="M4.82993 0.154913C4.77637 0.105807 4.71276 0.0668479 4.64272 0.0402655C4.57268 0.013683 4.49759 0 4.42176 0C4.34593 0 4.27085 0.013683 4.20081 0.0402655C4.13077 0.0668479 4.06715 0.105807 4.0136 0.154913L0.134876 3.70255C0.0921209 3.74158 0.0582005 3.78793 0.0350566 3.83896C0.0119128 3.88999 0 3.9447 0 3.99994C0 4.05519 0.0119128 4.1099 0.0350566 4.16093C0.0582005 4.21196 0.0921209 4.25831 0.134876 4.29734L4.0136 7.84498C4.23959 8.05168 4.60394 8.05168 4.82993 7.84498C5.05592 7.63828 5.05592 7.30503 4.82993 7.09833L1.44469 4.00205L4.83454 0.901562C5.05592 0.694862 5.05592 0.361612 4.82993 0.154913Z" fill="white"/>
</svg>
