<svg width="61" height="56" viewBox="0 0 61 56" fill="none" xmlns="http://www.w3.org/2000/svg">
<path d="M7.71398 29.5632L30.3864 8.91168L53.0479 29.5739C53.668 30.1619 54.557 30.773 55.758 30.773C56.6086 30.773 57.4717 30.51 58.1462 29.9286C58.8432 29.3278 59.25 28.4589 59.25 27.468C59.25 26.9242 59.1481 26.4091 58.9164 25.9287C58.6888 25.4571 58.3733 25.0962 58.0529 24.8082C58.0514 24.8069 58.0499 24.8055 58.0484 24.8042L50.437 17.876V4.687C50.437 3.84835 50.1637 3.01913 49.5408 2.39621C48.9179 1.7733 48.0886 1.5 47.25 1.5H44.18C43.3474 1.5 42.5247 1.77592 41.9018 2.3805C41.2733 2.99052 40.969 3.81853 40.969 4.687V9.25251L34.207 3.07112C33.1117 2.04275 31.7399 1.524 30.375 1.524C28.9928 1.524 27.6533 2.05484 26.5501 3.06471C26.5497 3.06508 26.5493 3.06546 26.5489 3.06583L2.69249 24.8125L2.68239 24.8217L2.67246 24.8311C2.03821 25.4307 1.5 26.246 1.5 27.468C1.5 28.4583 1.90611 29.3273 2.60322 29.9284C3.27788 30.5101 4.14117 30.773 4.992 30.773C6.20014 30.773 7.09011 30.1789 7.71398 29.5632ZM24.469 53.789H25.969V52.289V35.624C25.969 35.5233 25.9858 35.4643 25.9965 35.4368C26.0066 35.4109 26.0151 35.4026 26.0172 35.4006L26.0172 35.4005C26.0195 35.3983 26.0311 35.387 26.0646 35.3744C26.0996 35.3613 26.1663 35.344 26.273 35.344H34.547C34.6537 35.344 34.7171 35.3613 34.7472 35.3727C34.7625 35.3785 34.7712 35.3835 34.7754 35.3862C34.7794 35.3888 34.781 35.3903 34.7815 35.3908C34.782 35.3913 34.7835 35.3929 34.7861 35.3969C34.7875 35.3991 34.7897 35.4028 34.7923 35.4081C34.7944 35.4125 34.7969 35.4179 34.7994 35.4247C34.8108 35.4545 34.828 35.5175 34.828 35.624V52.289V53.789H36.328H45.797C47.7326 53.789 49.462 53.2282 50.7112 52.0033C51.9644 50.7744 52.547 49.061 52.547 47.132V29.976V29.3085L52.0511 28.8616L32.1557 10.9349C32.1551 10.9344 32.1545 10.9338 32.1539 10.9332C31.6758 10.5003 31.0495 10.195 30.328 10.195C29.5683 10.195 28.9659 10.5534 28.5197 10.9622C28.5186 10.9631 28.5176 10.9641 28.5165 10.9651L8.69407 28.983L8.203 29.4294V30.093V47.132C8.203 49.0659 8.79432 50.7796 10.0537 52.0066C11.3078 53.2285 13.0407 53.789 14.976 53.789H24.469Z" fill="white" stroke="black" stroke-width="3"/>
</svg>
