<svg width="62" height="54" viewBox="0 0 62 54" fill="none" xmlns="http://www.w3.org/2000/svg">
<mask id="path-1-outside-1_293_276" maskUnits="userSpaceOnUse" x="0" y="0" width="54" height="54" fill="black">
<rect fill="white" width="54" height="54"/>
<path d="M45.9929 50.9929C44.6912 50.9419 43.4299 49.9781 43.4299 48.365V24.0103V3H3V46.4754C3 48.9746 5.03131 51 7.53655 51H46L45.9929 50.9929ZM22.7541 8.64727C23.2697 8.51323 23.7912 8.81926 23.9256 9.3299L25.1059 13.8165L26.1038 11.4015C26.2518 11.0433 26.6021 10.8096 26.9904 10.8096C27.3793 10.8096 27.7295 11.0433 27.877 11.4021L28.8748 13.8171L30.0552 9.33049C30.1896 8.81985 30.7135 8.51442 31.2266 8.64786C31.7392 8.7819 32.0455 9.30499 31.9111 9.81622L30.0052 17.0612C29.9006 17.4586 29.5533 17.7456 29.1418 17.7729C28.7309 17.8055 28.3474 17.5636 28.1904 17.1828L26.9904 14.2785L25.7898 17.1834C25.6411 17.5434 25.2897 17.7753 24.9032 17.7753C24.8818 17.7753 24.8604 17.7747 24.8384 17.7729C24.4269 17.7451 24.0796 17.4586 23.9749 17.0612L22.0703 9.81563C21.9353 9.3044 22.2421 8.7813 22.7541 8.64727ZM15.883 9.57306C15.883 9.04463 16.3123 8.61643 16.8422 8.61643H20.0628C20.5926 8.61643 21.0219 9.04463 21.0219 9.57306C21.0219 10.1015 20.5926 10.5297 20.0628 10.5297H17.8019V12.2383H18.949C19.4788 12.2383 19.9081 12.6665 19.9081 13.195C19.9081 13.7234 19.4788 14.1516 18.949 14.1516H17.8019V15.8603H20.0628C20.5926 15.8603 21.0219 16.2885 21.0219 16.8169C21.0219 17.3453 20.5926 17.7735 20.0628 17.7735H16.8422C16.3123 17.7735 15.883 17.3453 15.883 16.8169V9.57306ZM7.75657 9.57306C7.75657 9.14545 8.04081 8.77003 8.4529 8.6532C8.86499 8.53696 9.30562 8.70598 9.53099 9.06894L12.2652 13.4625V9.57365C12.2652 9.04522 12.6945 8.61702 13.2243 8.61702C13.7542 8.61702 14.1835 9.04522 14.1835 9.57365V16.8187C14.1835 17.2463 13.8993 17.6217 13.4872 17.7385C13.3998 17.7634 13.3117 17.7753 13.2243 17.7753C12.8985 17.7753 12.5875 17.6092 12.4091 17.3228L9.6749 12.9293V16.8181C9.6749 17.3465 9.24556 17.7747 8.71573 17.7747C8.1859 17.7747 7.75657 17.3465 7.75657 16.8181V9.57306ZM8.71573 21.6682H21.085C21.6148 21.6682 22.0441 22.0964 22.0441 22.6249C22.0441 23.1533 21.6148 23.5815 21.085 23.5815H8.71573C8.1859 23.5815 7.75657 23.1533 7.75657 22.6249C7.75657 22.0964 8.1859 21.6682 8.71573 21.6682ZM37.7142 45.2733H8.71573C8.1859 45.2733 7.75657 44.8445 7.75657 44.3166C7.75657 43.7888 8.1859 43.36 8.71573 43.36H37.7142C38.244 43.36 38.6734 43.7888 38.6734 44.3166C38.6734 44.8445 38.244 45.2733 37.7142 45.2733ZM37.7142 38.0431H8.71573C8.1859 38.0431 7.75657 37.6143 7.75657 37.0864C7.75657 36.5586 8.1859 36.1298 8.71573 36.1298H37.7142C38.244 36.1298 38.6734 36.5586 38.6734 37.0864C38.6734 37.6143 38.244 38.0431 37.7142 38.0431ZM37.7142 30.8123H8.71573C8.1859 30.8123 7.75657 30.3835 7.75657 29.8557C7.75657 29.3278 8.1859 28.899 8.71573 28.899H37.7142C38.244 28.899 38.6734 29.3278 38.6734 29.8557C38.6734 30.3835 38.244 30.8123 37.7142 30.8123ZM37.7142 23.5821H26.991C26.4611 23.5821 26.0318 23.1539 26.0318 22.6255C26.0318 22.097 26.4611 21.6688 26.991 21.6688H37.7142C38.244 21.6688 38.6734 22.097 38.6734 22.6255C38.674 23.1539 38.244 23.5821 37.7142 23.5821ZM38.674 15.559C38.674 16.7801 37.6779 17.7741 36.453 17.7741H34.0827C33.5529 17.7741 33.1235 17.3459 33.1235 16.8175C33.1235 16.289 33.5535 15.8608 34.0827 15.8608H36.453C36.6165 15.8608 36.755 15.7227 36.755 15.5596V14.4541C36.755 14.2904 36.6165 14.1528 36.453 14.1528H35.1334C33.9085 14.1528 32.9125 13.1594 32.9125 11.9377V10.8322C32.9125 9.61042 33.9085 8.61702 35.1334 8.61702H36.8347C37.3646 8.61702 37.7939 9.04522 37.7939 9.57365C37.7939 10.1021 37.364 10.5303 36.8347 10.5303H35.1334C34.9699 10.5303 34.8314 10.6685 34.8314 10.8316V11.9371C34.8314 12.1007 34.9699 12.2383 35.1334 12.2383H36.453C37.6779 12.2383 38.674 13.2317 38.674 14.4535V15.559Z"/>
</mask>
<path d="M45.9929 50.9929C44.6912 50.9419 43.4299 49.9781 43.4299 48.365V24.0103V3H3V46.4754C3 48.9746 5.03131 51 7.53655 51H46L45.9929 50.9929ZM22.7541 8.64727C23.2697 8.51323 23.7912 8.81926 23.9256 9.3299L25.1059 13.8165L26.1038 11.4015C26.2518 11.0433 26.6021 10.8096 26.9904 10.8096C27.3793 10.8096 27.7295 11.0433 27.877 11.4021L28.8748 13.8171L30.0552 9.33049C30.1896 8.81985 30.7135 8.51442 31.2266 8.64786C31.7392 8.7819 32.0455 9.30499 31.9111 9.81622L30.0052 17.0612C29.9006 17.4586 29.5533 17.7456 29.1418 17.7729C28.7309 17.8055 28.3474 17.5636 28.1904 17.1828L26.9904 14.2785L25.7898 17.1834C25.6411 17.5434 25.2897 17.7753 24.9032 17.7753C24.8818 17.7753 24.8604 17.7747 24.8384 17.7729C24.4269 17.7451 24.0796 17.4586 23.9749 17.0612L22.0703 9.81563C21.9353 9.3044 22.2421 8.7813 22.7541 8.64727ZM15.883 9.57306C15.883 9.04463 16.3123 8.61643 16.8422 8.61643H20.0628C20.5926 8.61643 21.0219 9.04463 21.0219 9.57306C21.0219 10.1015 20.5926 10.5297 20.0628 10.5297H17.8019V12.2383H18.949C19.4788 12.2383 19.9081 12.6665 19.9081 13.195C19.9081 13.7234 19.4788 14.1516 18.949 14.1516H17.8019V15.8603H20.0628C20.5926 15.8603 21.0219 16.2885 21.0219 16.8169C21.0219 17.3453 20.5926 17.7735 20.0628 17.7735H16.8422C16.3123 17.7735 15.883 17.3453 15.883 16.8169V9.57306ZM7.75657 9.57306C7.75657 9.14545 8.04081 8.77003 8.4529 8.6532C8.86499 8.53696 9.30562 8.70598 9.53099 9.06894L12.2652 13.4625V9.57365C12.2652 9.04522 12.6945 8.61702 13.2243 8.61702C13.7542 8.61702 14.1835 9.04522 14.1835 9.57365V16.8187C14.1835 17.2463 13.8993 17.6217 13.4872 17.7385C13.3998 17.7634 13.3117 17.7753 13.2243 17.7753C12.8985 17.7753 12.5875 17.6092 12.4091 17.3228L9.6749 12.9293V16.8181C9.6749 17.3465 9.24556 17.7747 8.71573 17.7747C8.1859 17.7747 7.75657 17.3465 7.75657 16.8181V9.57306ZM8.71573 21.6682H21.085C21.6148 21.6682 22.0441 22.0964 22.0441 22.6249C22.0441 23.1533 21.6148 23.5815 21.085 23.5815H8.71573C8.1859 23.5815 7.75657 23.1533 7.75657 22.6249C7.75657 22.0964 8.1859 21.6682 8.71573 21.6682ZM37.7142 45.2733H8.71573C8.1859 45.2733 7.75657 44.8445 7.75657 44.3166C7.75657 43.7888 8.1859 43.36 8.71573 43.36H37.7142C38.244 43.36 38.6734 43.7888 38.6734 44.3166C38.6734 44.8445 38.244 45.2733 37.7142 45.2733ZM37.7142 38.0431H8.71573C8.1859 38.0431 7.75657 37.6143 7.75657 37.0864C7.75657 36.5586 8.1859 36.1298 8.71573 36.1298H37.7142C38.244 36.1298 38.6734 36.5586 38.6734 37.0864C38.6734 37.6143 38.244 38.0431 37.7142 38.0431ZM37.7142 30.8123H8.71573C8.1859 30.8123 7.75657 30.3835 7.75657 29.8557C7.75657 29.3278 8.1859 28.899 8.71573 28.899H37.7142C38.244 28.899 38.6734 29.3278 38.6734 29.8557C38.6734 30.3835 38.244 30.8123 37.7142 30.8123ZM37.7142 23.5821H26.991C26.4611 23.5821 26.0318 23.1539 26.0318 22.6255C26.0318 22.097 26.4611 21.6688 26.991 21.6688H37.7142C38.244 21.6688 38.6734 22.097 38.6734 22.6255C38.674 23.1539 38.244 23.5821 37.7142 23.5821ZM38.674 15.559C38.674 16.7801 37.6779 17.7741 36.453 17.7741H34.0827C33.5529 17.7741 33.1235 17.3459 33.1235 16.8175C33.1235 16.289 33.5535 15.8608 34.0827 15.8608H36.453C36.6165 15.8608 36.755 15.7227 36.755 15.5596V14.4541C36.755 14.2904 36.6165 14.1528 36.453 14.1528H35.1334C33.9085 14.1528 32.9125 13.1594 32.9125 11.9377V10.8322C32.9125 9.61042 33.9085 8.61702 35.1334 8.61702H36.8347C37.3646 8.61702 37.7939 9.04522 37.7939 9.57365C37.7939 10.1021 37.364 10.5303 36.8347 10.5303H35.1334C34.9699 10.5303 34.8314 10.6685 34.8314 10.8316V11.9371C34.8314 12.1007 34.9699 12.2383 35.1334 12.2383H36.453C37.6779 12.2383 38.674 13.2317 38.674 14.4535V15.559Z" fill="white"/>
<path d="M45.9929 50.9929C44.6912 50.9419 43.4299 49.9781 43.4299 48.365V24.0103V3H3V46.4754C3 48.9746 5.03131 51 7.53655 51H46L45.9929 50.9929ZM22.7541 8.64727C23.2697 8.51323 23.7912 8.81926 23.9256 9.3299L25.1059 13.8165L26.1038 11.4015C26.2518 11.0433 26.6021 10.8096 26.9904 10.8096C27.3793 10.8096 27.7295 11.0433 27.877 11.4021L28.8748 13.8171L30.0552 9.33049C30.1896 8.81985 30.7135 8.51442 31.2266 8.64786C31.7392 8.7819 32.0455 9.30499 31.9111 9.81622L30.0052 17.0612C29.9006 17.4586 29.5533 17.7456 29.1418 17.7729C28.7309 17.8055 28.3474 17.5636 28.1904 17.1828L26.9904 14.2785L25.7898 17.1834C25.6411 17.5434 25.2897 17.7753 24.9032 17.7753C24.8818 17.7753 24.8604 17.7747 24.8384 17.7729C24.4269 17.7451 24.0796 17.4586 23.9749 17.0612L22.0703 9.81563C21.9353 9.3044 22.2421 8.7813 22.7541 8.64727ZM15.883 9.57306C15.883 9.04463 16.3123 8.61643 16.8422 8.61643H20.0628C20.5926 8.61643 21.0219 9.04463 21.0219 9.57306C21.0219 10.1015 20.5926 10.5297 20.0628 10.5297H17.8019V12.2383H18.949C19.4788 12.2383 19.9081 12.6665 19.9081 13.195C19.9081 13.7234 19.4788 14.1516 18.949 14.1516H17.8019V15.8603H20.0628C20.5926 15.8603 21.0219 16.2885 21.0219 16.8169C21.0219 17.3453 20.5926 17.7735 20.0628 17.7735H16.8422C16.3123 17.7735 15.883 17.3453 15.883 16.8169V9.57306ZM7.75657 9.57306C7.75657 9.14545 8.04081 8.77003 8.4529 8.6532C8.86499 8.53696 9.30562 8.70598 9.53099 9.06894L12.2652 13.4625V9.57365C12.2652 9.04522 12.6945 8.61702 13.2243 8.61702C13.7542 8.61702 14.1835 9.04522 14.1835 9.57365V16.8187C14.1835 17.2463 13.8993 17.6217 13.4872 17.7385C13.3998 17.7634 13.3117 17.7753 13.2243 17.7753C12.8985 17.7753 12.5875 17.6092 12.4091 17.3228L9.6749 12.9293V16.8181C9.6749 17.3465 9.24556 17.7747 8.71573 17.7747C8.1859 17.7747 7.75657 17.3465 7.75657 16.8181V9.57306ZM8.71573 21.6682H21.085C21.6148 21.6682 22.0441 22.0964 22.0441 22.6249C22.0441 23.1533 21.6148 23.5815 21.085 23.5815H8.71573C8.1859 23.5815 7.75657 23.1533 7.75657 22.6249C7.75657 22.0964 8.1859 21.6682 8.71573 21.6682ZM37.7142 45.2733H8.71573C8.1859 45.2733 7.75657 44.8445 7.75657 44.3166C7.75657 43.7888 8.1859 43.36 8.71573 43.36H37.7142C38.244 43.36 38.6734 43.7888 38.6734 44.3166C38.6734 44.8445 38.244 45.2733 37.7142 45.2733ZM37.7142 38.0431H8.71573C8.1859 38.0431 7.75657 37.6143 7.75657 37.0864C7.75657 36.5586 8.1859 36.1298 8.71573 36.1298H37.7142C38.244 36.1298 38.6734 36.5586 38.6734 37.0864C38.6734 37.6143 38.244 38.0431 37.7142 38.0431ZM37.7142 30.8123H8.71573C8.1859 30.8123 7.75657 30.3835 7.75657 29.8557C7.75657 29.3278 8.1859 28.899 8.71573 28.899H37.7142C38.244 28.899 38.6734 29.3278 38.6734 29.8557C38.6734 30.3835 38.244 30.8123 37.7142 30.8123ZM37.7142 23.5821H26.991C26.4611 23.5821 26.0318 23.1539 26.0318 22.6255C26.0318 22.097 26.4611 21.6688 26.991 21.6688H37.7142C38.244 21.6688 38.6734 22.097 38.6734 22.6255C38.674 23.1539 38.244 23.5821 37.7142 23.5821ZM38.674 15.559C38.674 16.7801 37.6779 17.7741 36.453 17.7741H34.0827C33.5529 17.7741 33.1235 17.3459 33.1235 16.8175C33.1235 16.289 33.5535 15.8608 34.0827 15.8608H36.453C36.6165 15.8608 36.755 15.7227 36.755 15.5596V14.4541C36.755 14.2904 36.6165 14.1528 36.453 14.1528H35.1334C33.9085 14.1528 32.9125 13.1594 32.9125 11.9377V10.8322C32.9125 9.61042 33.9085 8.61702 35.1334 8.61702H36.8347C37.3646 8.61702 37.7939 9.04522 37.7939 9.57365C37.7939 10.1021 37.364 10.5303 36.8347 10.5303H35.1334C34.9699 10.5303 34.8314 10.6685 34.8314 10.8316V11.9371C34.8314 12.1007 34.9699 12.2383 35.1334 12.2383H36.453C37.6779 12.2383 38.674 13.2317 38.674 14.4535V15.559Z" stroke="black" stroke-width="6" mask="url(#path-1-outside-1_293_276)"/>
<mask id="path-2-outside-2_293_276" maskUnits="userSpaceOnUse" x="43" y="24" width="19" height="28" fill="black">
<rect fill="white" x="43" y="24" width="19" height="28"/>
<path d="M46.0075 48.9877C46.0186 48.9888 46.0932 49.0026 46.1342 48.9996C46.136 48.993 46.1472 48.9763 46.1603 48.9501L57 27H46V48.9155C46 48.9662 46.0075 48.9877 46.0075 48.9877Z"/>
</mask>
<path d="M46.0075 48.9877C46.0186 48.9888 46.0932 49.0026 46.1342 48.9996C46.136 48.993 46.1472 48.9763 46.1603 48.9501L57 27H46V48.9155C46 48.9662 46.0075 48.9877 46.0075 48.9877Z" fill="white"/>
<path d="M46.0075 48.9877C46.0186 48.9888 46.0932 49.0026 46.1342 48.9996C46.136 48.993 46.1472 48.9763 46.1603 48.9501L57 27H46V48.9155C46 48.9662 46.0075 48.9877 46.0075 48.9877Z" stroke="black" stroke-width="6" mask="url(#path-2-outside-2_293_276)"/>
</svg>
