<svg width="32" height="32" viewBox="0 0 32 32" fill="none" xmlns="http://www.w3.org/2000/svg">
<path d="M28.2422 6.2147L28.2419 6.20334L28.2412 6.192C28.1626 4.85519 27.5762 3.59892 26.6019 2.68025C25.6276 1.76158 24.3391 1.24994 23 1.25C23 1.25 23 1.25 23 1.25H6.5H6.48935L6.4787 1.2503L6.2147 1.2578L6.20334 1.25813L6.192 1.25879C4.85519 1.33735 3.59892 1.92378 2.68025 2.89809C1.76158 3.87238 1.24994 5.1609 1.25 6.5C1.25 6.50001 1.25 6.50003 1.25 6.50004V9.125V9.14257L1.25082 9.16012L1.25982 9.35212L1.2608 9.373L1.26294 9.3938C1.32949 10.0402 1.63346 10.639 2.11603 11.0743C2.59852 11.5094 3.22526 11.7502 3.875 11.75C3.87511 11.75 3.87523 11.75 3.87534 11.75H5.75V26V26.0106L5.7503 26.0213L5.7578 26.2853L5.75813 26.2967L5.75879 26.308C5.83735 27.6448 6.42378 28.9011 7.39808 29.8198C8.37238 30.7384 9.6609 31.2501 11 31.25C11 31.25 11 31.25 11 31.25H26H26.0106L26.0213 31.2497L26.2853 31.2422L26.2967 31.2419L26.308 31.2412C27.6448 31.1626 28.9011 30.5762 29.8198 29.6019C30.7384 28.6276 31.2501 27.3391 31.25 26C31.25 26 31.25 26 31.25 26V23.375V23.3574L31.2492 23.3399L31.2402 23.1479L31.2392 23.1275L31.2372 23.1072C31.1026 21.7828 29.9838 20.75 28.625 20.75H28.25V6.5V6.48935L28.2497 6.4787L28.2422 6.2147ZM10.25 26V5.75H23C23.1989 5.75 23.3897 5.82902 23.5303 5.96967C23.671 6.11032 23.75 6.30109 23.75 6.5V20.75H14.375C12.9258 20.75 11.75 21.9258 11.75 23.375V26C11.75 26.1989 11.671 26.3897 11.5303 26.5303C11.3897 26.671 11.1989 26.75 11 26.75C10.8011 26.75 10.6103 26.671 10.4697 26.5303C10.329 26.3897 10.25 26.1989 10.25 26ZM16.25 26V25.25H26.75V26C26.75 26.1989 26.671 26.3897 26.5303 26.5303C26.3897 26.671 26.1989 26.75 26 26.75H16.1968C16.2319 26.5047 16.25 26.2542 16.25 26ZM18.591 15.409C18.169 14.9871 17.5967 14.75 17 14.75H14C13.4033 14.75 12.831 14.9871 12.409 15.409C11.9871 15.831 11.75 16.4033 11.75 17C11.75 17.5967 11.9871 18.169 12.409 18.591C12.831 19.0129 13.4033 19.25 14 19.25H17C17.5967 19.25 18.169 19.0129 18.591 18.591C19.0129 18.169 19.25 17.5967 19.25 17C19.25 16.4033 19.0129 15.831 18.591 15.409ZM21.591 9.40901C21.169 8.98705 20.5967 8.75 20 8.75H14C13.4033 8.75 12.831 8.98705 12.409 9.40901C11.9871 9.83097 11.75 10.4033 11.75 11C11.75 11.5967 11.9871 12.169 12.409 12.591C12.831 13.0129 13.4033 13.25 14 13.25H20C20.5967 13.25 21.169 13.0129 21.591 12.591C22.0129 12.169 22.25 11.5967 22.25 11C22.25 10.4033 22.0129 9.83097 21.591 9.40901Z" fill="white" stroke="black" stroke-width="1.5"/>
</svg>
