<svg width="43" height="48" viewBox="0 0 43 48" fill="none" xmlns="http://www.w3.org/2000/svg">
<mask id="path-1-outside-1_141_229" maskUnits="userSpaceOnUse" x="0" y="0" width="43" height="48" fill="black">
<rect fill="white" width="43" height="48"/>
<path d="M36.8466 6.36H32.2952L29.4172 3.4914C29.2609 3.33544 29.0753 3.21177 28.8712 3.12745C28.667 3.04313 28.4482 2.99983 28.2273 3H14.7727C14.5518 2.99983 14.333 3.04313 14.1288 3.12745C13.9247 3.21177 13.7391 3.33544 13.5828 3.4914L10.7048 6.36H6.15341C5.31707 6.36 4.51499 6.69187 3.92361 7.28261C3.33223 7.87335 3 8.67457 3 9.51V41.85C3 42.6854 3.33223 43.4866 3.92361 44.0774C4.51499 44.6681 5.31707 45 6.15341 45H18.9773C19.2003 45 19.4142 44.9115 19.5719 44.754C19.7296 44.5964 19.8182 44.3828 19.8182 44.16V19.8567C19.8128 19.4233 19.9717 19.0039 20.263 18.6825C20.5542 18.3612 20.9563 18.1618 21.3886 18.1242C21.6186 18.1089 21.8494 18.1411 22.0665 18.2187C22.2835 18.2962 22.4823 18.4176 22.6505 18.5751C22.8187 18.7327 22.9526 18.9231 23.044 19.1345C23.1354 19.3459 23.1823 19.5739 23.1818 19.8042V44.16C23.1818 44.3828 23.2704 44.5964 23.4281 44.754C23.5858 44.9115 23.7997 45 24.0227 45H36.8466C37.6829 45 38.485 44.6681 39.0764 44.0774C39.6678 43.4866 40 42.6854 40 41.85V9.51C40 8.67457 39.6678 7.87335 39.0764 7.28261C38.485 6.69187 37.6829 6.36 36.8466 6.36ZM12.784 20.4468C12.661 20.5478 12.5119 20.6118 12.354 20.6314C12.196 20.6511 12.0357 20.6256 11.8917 20.5578C11.7477 20.4901 11.6259 20.3829 11.5405 20.2488C11.4551 20.1146 11.4095 19.959 11.4091 19.8V10.4151L14.613 7.2147L19.547 14.6088L12.784 20.4468ZM31.5909 19.8C31.5913 19.9599 31.546 20.1165 31.4603 20.2515C31.3747 20.3865 31.2522 20.4944 31.1074 20.5623C30.9651 20.6309 30.806 20.6572 30.6492 20.6382C30.4923 20.6192 30.3442 20.5557 30.2223 20.4552L23.453 14.613L28.387 7.2189L31.5909 10.4151V19.8Z"/>
</mask>
<path d="M36.8466 6.36H32.2952L29.4172 3.4914C29.2609 3.33544 29.0753 3.21177 28.8712 3.12745C28.667 3.04313 28.4482 2.99983 28.2273 3H14.7727C14.5518 2.99983 14.333 3.04313 14.1288 3.12745C13.9247 3.21177 13.7391 3.33544 13.5828 3.4914L10.7048 6.36H6.15341C5.31707 6.36 4.51499 6.69187 3.92361 7.28261C3.33223 7.87335 3 8.67457 3 9.51V41.85C3 42.6854 3.33223 43.4866 3.92361 44.0774C4.51499 44.6681 5.31707 45 6.15341 45H18.9773C19.2003 45 19.4142 44.9115 19.5719 44.754C19.7296 44.5964 19.8182 44.3828 19.8182 44.16V19.8567C19.8128 19.4233 19.9717 19.0039 20.263 18.6825C20.5542 18.3612 20.9563 18.1618 21.3886 18.1242C21.6186 18.1089 21.8494 18.1411 22.0665 18.2187C22.2835 18.2962 22.4823 18.4176 22.6505 18.5751C22.8187 18.7327 22.9526 18.9231 23.044 19.1345C23.1354 19.3459 23.1823 19.5739 23.1818 19.8042V44.16C23.1818 44.3828 23.2704 44.5964 23.4281 44.754C23.5858 44.9115 23.7997 45 24.0227 45H36.8466C37.6829 45 38.485 44.6681 39.0764 44.0774C39.6678 43.4866 40 42.6854 40 41.85V9.51C40 8.67457 39.6678 7.87335 39.0764 7.28261C38.485 6.69187 37.6829 6.36 36.8466 6.36ZM12.784 20.4468C12.661 20.5478 12.5119 20.6118 12.354 20.6314C12.196 20.6511 12.0357 20.6256 11.8917 20.5578C11.7477 20.4901 11.6259 20.3829 11.5405 20.2488C11.4551 20.1146 11.4095 19.959 11.4091 19.8V10.4151L14.613 7.2147L19.547 14.6088L12.784 20.4468ZM31.5909 19.8C31.5913 19.9599 31.546 20.1165 31.4603 20.2515C31.3747 20.3865 31.2522 20.4944 31.1074 20.5623C30.9651 20.6309 30.806 20.6572 30.6492 20.6382C30.4923 20.6192 30.3442 20.5557 30.2223 20.4552L23.453 14.613L28.387 7.2189L31.5909 10.4151V19.8Z" fill="white"/>
<path d="M36.8466 6.36H32.2952L29.4172 3.4914C29.2609 3.33544 29.0753 3.21177 28.8712 3.12745C28.667 3.04313 28.4482 2.99983 28.2273 3H14.7727C14.5518 2.99983 14.333 3.04313 14.1288 3.12745C13.9247 3.21177 13.7391 3.33544 13.5828 3.4914L10.7048 6.36H6.15341C5.31707 6.36 4.51499 6.69187 3.92361 7.28261C3.33223 7.87335 3 8.67457 3 9.51V41.85C3 42.6854 3.33223 43.4866 3.92361 44.0774C4.51499 44.6681 5.31707 45 6.15341 45H18.9773C19.2003 45 19.4142 44.9115 19.5719 44.754C19.7296 44.5964 19.8182 44.3828 19.8182 44.16V19.8567C19.8128 19.4233 19.9717 19.0039 20.263 18.6825C20.5542 18.3612 20.9563 18.1618 21.3886 18.1242C21.6186 18.1089 21.8494 18.1411 22.0665 18.2187C22.2835 18.2962 22.4823 18.4176 22.6505 18.5751C22.8187 18.7327 22.9526 18.9231 23.044 19.1345C23.1354 19.3459 23.1823 19.5739 23.1818 19.8042V44.16C23.1818 44.3828 23.2704 44.5964 23.4281 44.754C23.5858 44.9115 23.7997 45 24.0227 45H36.8466C37.6829 45 38.485 44.6681 39.0764 44.0774C39.6678 43.4866 40 42.6854 40 41.85V9.51C40 8.67457 39.6678 7.87335 39.0764 7.28261C38.485 6.69187 37.6829 6.36 36.8466 6.36ZM12.784 20.4468C12.661 20.5478 12.5119 20.6118 12.354 20.6314C12.196 20.6511 12.0357 20.6256 11.8917 20.5578C11.7477 20.4901 11.6259 20.3829 11.5405 20.2488C11.4551 20.1146 11.4095 19.959 11.4091 19.8V10.4151L14.613 7.2147L19.547 14.6088L12.784 20.4468ZM31.5909 19.8C31.5913 19.9599 31.546 20.1165 31.4603 20.2515C31.3747 20.3865 31.2522 20.4944 31.1074 20.5623C30.9651 20.6309 30.806 20.6572 30.6492 20.6382C30.4923 20.6192 30.3442 20.5557 30.2223 20.4552L23.453 14.613L28.387 7.2189L31.5909 10.4151V19.8Z" stroke="black" stroke-width="6" mask="url(#path-1-outside-1_141_229)"/>
</svg>
